Coordinates
version=1
nRows=26
nColumns=24
inDegrees=yes

Units are S.I. units (second, meters, Newtons, ...)
Angles are in degrees.

endheader
time	pelvis_tilt	pelvis_list	pelvis_rotation	pelvis_tx	pelvis_ty	pelvis_tz	hip_flexion_r	hip_adduction_r	hip_rotation_r	knee_angle_r	ankle_angle_r	subtalar_angle_r	mtp_angle_r	hip_flexion_l	hip_adduction_l	hip_rotation_l	knee_angle_l	ankle_angle_l	subtalar_angle_l	mtp_angle_l	lumbar_extension	lumbar_bending	lumbar_rotation
      0.81683333	      1.31244119	      0.11000240	      0.51517468	     -0.38277794	      1.02142102	      0.30843405	      7.51100062	      4.24241310	      2.75659336	    -15.16794100	      4.26864017	    -16.09982528	      6.08568594	     12.56831951	     -1.64758139	     -5.33535137	    -67.43187814	      2.08503946	    -15.90911314	      2.31465478	     -3.27772382	     -0.22778723	      1.89434283
      0.82100000	      1.31730218	      0.22036566	      0.28943001	     -0.37755687	      1.02217191	      0.30881416	      7.02676786	      4.12565631	      2.85240053	    -14.84898277	      4.40970967	    -15.87149580	      6.14579714	     13.09758688	     -1.54484072	     -5.52241113	    -67.16377180	      2.39313212	    -15.38678573	      2.32057352	     -3.31671126	     -0.33533536	      2.30175557
      0.82516667	      1.33289304	      0.33911436	      0.06322754	     -0.37236081	      1.02290273	      0.30919163	      6.53093724	      3.99695514	      2.95684786	    -14.52305065	      4.52598451	    -15.64547418	      6.20637108	     13.60713215	     -1.43810521	     -5.71485876	    -66.84777436	      2.67612982	    -14.84248154	      2.33979924	     -3.36795171	     -0.46192915	      2.65788657
      0.82933333	      1.34424071	      0.44805718	     -0.16733007	     -0.36715138	      1.02357530	      0.30956140	      6.04209330	      3.87486738	      3.04964914	    -14.20103713	      4.64547345	    -15.42611222	      6.27629206	     14.10804658	     -1.34949523	     -5.91386048	    -66.48582283	      2.95920159	    -14.26742510	      2.37481380	     -3.40034542	     -0.57086280	      3.03047059
      0.83350000	      1.33409334	      0.57016838	     -0.40298490	     -0.36197532	      1.02418707	      0.30993826	      5.58556305	      3.73568281	      3.14557951	    -13.88600790	      4.70583458	    -15.21726977	      6.32003192	     14.62423999	     -1.24954841	     -6.11730957	    -66.07323392	      3.18541594	    -13.69829463	      2.40732140	     -3.41915171	     -0.71623141	      3.28243057
      0.83766667	      1.35996565	      0.65468829	     -0.61960311	     -0.35681348	      1.02478041	      0.31027789	      5.08072443	      3.63475203	      3.24490038	    -13.55868413	      4.87890054	    -14.99274793	      6.39773865	     15.09800088	     -1.19102526	     -6.29229936	    -65.63943756	      3.48707365	    -13.07546438	      2.47093316	     -3.48944079	     -0.78817503	      3.72209547
      0.84183333	      1.36588449	      0.74111831	     -0.83933084	     -0.35165636	      1.02529678	      0.31062204	      4.60046434	      3.52864990	      3.33749203	    -13.22919755	      4.98614532	    -14.78570388	      6.47781680	     15.58397760	     -1.13948135	     -6.48042722	    -65.16277472	      3.73309283	    -12.47362437	      2.54709612	     -3.53123267	     -0.89018656	      4.06992205
      0.84600000	      1.36375758	      0.82854239	     -1.05581177	     -0.34650210	      1.02576458	      0.31094978	      4.13401815	      3.41842917	      3.43008956	    -12.91031582	      5.10327508	    -14.58273989	      6.56111678	     16.06487733	     -1.08625085	     -6.66221215	    -64.63795245	      3.96859826	    -11.88090298	      2.63589196	     -3.56028562	     -0.97884262	      4.40707586
      0.85016667	      1.36077925	      0.92474846	     -1.27836152	     -0.34136557	      1.02619303	      0.31126417	      3.67828330	      3.29436705	      3.51517328	    -12.60520288	      5.18387033	    -14.39198690	      6.61481857	     16.53178312	     -1.02454800	     -6.85005233	    -64.05837038	      4.16119760	    -11.30621972	      2.70087687	     -3.58318265	     -1.08005165	      4.65001721
      0.85433333	      1.36804053	      0.98231210	     -1.48201204	     -0.33623472	      1.02655932	      0.31157083	      3.19929530	      3.21196907	      3.59830851	    -12.27909747	      5.33448216	    -14.19185506	      6.69372209	     16.98637242	     -1.01320105	     -7.02219117	    -63.47176848	      4.40569885	    -10.71683826	      2.80119771	     -3.63000594	     -1.13729940	      5.02413164
      0.85850000	      1.38064433	      1.04148885	     -1.68186956	     -0.33112595	      1.02688957	      0.31186377	      2.71686683	      3.12475885	      3.68508257	    -11.95285661	      5.45373039	    -14.00398463	      6.77644974	     17.42377486	     -0.99969374	     -7.19192924	    -62.83983956	      4.60433803	    -10.18082347	      2.91321496	     -3.68647015	     -1.20708151	      5.34710632
      0.86266667	      1.35208121	      1.09827557	     -1.87975168	     -0.32600672	      1.02713804	      0.31214175	      2.28421372	      3.03868341	      3.77275554	    -11.63345877	      5.51486199	    -13.87451845	      8.47193726	     17.88998805	     -0.99126648	     -7.35986929	    -62.15627491	      4.71990542	     -9.71472203	      5.31704599	     -3.68184607	     -1.26152849	      5.71401812
      0.86683333	      1.35435670	      1.17364898	     -2.07024209	     -0.32089534	      1.02737532	      0.31239129	      1.82486264	      2.92650800	      3.83517072	    -11.32999736	      5.61914579	    -13.68864853	      8.47742185	     18.30603145	     -0.95504893	     -7.52133167	    -61.42675744	      4.87225789	     -9.26839704	      5.33531917	     -3.72309947	     -1.34859995	      5.86331587
      0.87100000	      1.38762223	      1.20172579	     -2.24354775	     -0.31580654	      1.02759693	      0.31262134	      1.31871692	      2.86427975	      3.90291543	    -11.00251118	      5.77091903	    -13.49894828	      8.48717477	     18.68587968	     -0.97459912	     -7.66688395	    -60.68909864	      5.05335769	     -8.80833864	      5.36986237	     -3.80863564	     -1.37496068	      6.18769189
      0.87516667	      1.38352102	      1.24044449	     -2.41613285	     -0.31070744	      1.02772320	      0.31284470	      0.86190987	      2.78988797	      3.96523870	    -10.69183717	      5.89220181	    -13.33483217	      8.49653959	     19.09021846	     -0.98468052	     -7.81756134	    -59.90555387	      5.18751946	     -8.40913017	      5.40569360	     -3.84033059	     -1.41888471	      6.44504432
      0.87933333	      1.35111847	      1.28279701	     -2.58051176	     -0.30560968	      1.02776717	      0.31303937	      0.44244529	      2.71020249	      4.02337974	    -10.39348767	      5.98245091	    -13.18082284	      8.50400202	     19.51072745	     -0.98512688	     -7.95322182	    -59.07906792	      5.28301630	     -8.07018381	      5.43290064	     -3.84048881	     -1.46239393	      6.63378610
      0.88350000	      1.34106273	      1.30831237	     -2.73107812	     -0.30052258	      1.02779330	      0.31321500	     -0.00652263	      2.64685224	      4.07637686	    -10.08698670	      6.10221862	    -13.02480565	      8.51228629	     19.89685335	     -1.00440094	     -8.08135105	    -58.22601555	      5.38411408	     -7.74807892	      5.46286366	     -3.87183910	     -1.48940658	      6.85889994
      0.88766667	      1.33021302	      1.32080668	     -2.87243507	     -0.29544013	      1.02776929	      0.31336997	     -0.45553525	      2.59640753	      4.12487664	     -9.77940512	      6.22015081	    -12.87798710	      8.52061578	     20.27190896	     -1.03655574	     -8.20043127	    -57.34337135	      5.47097560	     -7.46799879	      5.49432983	     -3.90537306	     -1.50068209	      7.08714595
      0.89183333	      1.31922421	      1.33419614	     -3.00590200	     -0.29035501	      1.02770215	      0.31350915	     -0.90076112	      2.54333793	      4.16825167	     -9.48136815	      6.34696318	    -12.73558827	      8.52901439	     20.63107270	     -1.06498940	     -8.31305511	    -56.42068341	      5.53579024	     -7.23909583	      5.52831184	     -3.93956470	     -1.51418496	      7.31336690
      0.89600000	      1.31385494	      1.32694448	     -3.12171082	     -0.28527986	      1.02758774	      0.31361437	     -1.35690307	      2.51260189	      4.21131627	     -9.17738843	      6.49279021	    -12.59824978	      8.53933983	     20.97491718	     -1.10857703	     -8.40257377	    -55.47541802	      5.59547465	     -7.05287818	      5.58116936	     -3.98922464	     -1.49813698	      7.57310005
      0.90016667	      1.26344263	      1.33809064	     -3.23216943	     -0.28018115	      1.02738755	      0.31370202	     -1.75450600	      2.46241195	      4.23920966	     -8.89255461	      6.59334658	    -12.48173315	      8.54468041	     21.34659729	     -1.13087894	     -8.49064116	    -54.47708805	      5.60616262	     -6.90368099	      5.60594432	     -3.96978602	     -1.51026478	      7.68891408
      0.90433333	      1.25902642	      1.32871150	     -3.33325959	     -0.27510214	      1.02720309	      0.31377320	     -2.20630699	      2.43170489	      4.26724923	     -8.59967513	      6.71713094	    -12.35788709	      8.55046293	     21.65421494	     -1.17262407	     -8.57111279	    -53.44982593	      5.61779106	     -6.76870234	      5.63822685	     -4.01523283	     -1.49797491	      7.87062548
      0.90850000	      1.21123987	      1.32659653	     -3.42203803	     -0.27000308	      1.02692048	      0.31382827	     -2.60623511	      2.39623486	      4.29041471	     -8.32173503	      6.84400997	    -12.24864490	      8.55497911	     21.99247027	     -1.20157197	     -8.63488345	    -52.38316085	      5.60245305	     -6.68088110	      5.66560611	     -4.00896948	     -1.49587137	      8.02083085
      0.91266667	      1.19213610	      1.30959880	     -3.49868496	     -0.26490967	      1.02662940	      0.31385137	     -3.03959842	      2.37430837	      4.30596484	     -8.04136123	      6.96964051	    -12.13939231	      8.55798056	     22.28554497	     -1.24194272	     -8.69104590	    -51.28647313	      5.57547895	     -6.60583373	      5.69392395	     -4.04018916	     -1.47461856	      8.17199700
      0.91683333	      1.10829088	      1.26531055	     -3.54523340	     -0.25980785	      1.02618075	      0.31383374	     -3.40948384	      2.38946650	      4.32909475	     -7.75640398	      7.11712120	    -12.05453930	      8.56081673	     22.64726015	     -1.30557754	     -8.70751342	    -50.18521785	      5.56119799	     -6.54019417	      5.70483525	     -3.99441616	     -1.41668313	      8.24092031
      0.92100000	      1.11272534	      1.27473763	     -3.62307022	     -0.25471841	      1.02587895	      0.31384101	     -3.84990277	      2.33518153	      4.33016085	     -7.51137029	      7.25710461	    -11.94150885	      8.56008197	     22.86528404	     -1.30669520	     -8.76205969	    -48.97678684	      5.46610403	     -6.56073961	      5.74566899	     -4.05941011	     -1.42737827	      8.45974018
